<svg width="1500" height="500" viewBox="0 0 1500 500" fill="none" xmlns="http://www.w3.org/2000/svg">
  <defs>
    <linearGradient id="bg" x1="0" y1="0" x2="1500" y2="500" gradientUnits="userSpaceOnUse">
      <stop stop-color="#0A0A12"/>
      <stop offset="1" stop-color="#14162A"/>
    </linearGradient>
    <linearGradient id="title" x1="170" y1="120" x2="620" y2="260" gradientUnits="userSpaceOnUse">
      <stop stop-color="#818CF8"/>
      <stop offset="1" stop-color="#22D3EE"/>
    </linearGradient>
    <filter id="glow" x="-50%" y="-50%" width="200%" height="200%">
      <feGaussianBlur stdDeviation="18" result="blur"/>
      <feMerge>
        <feMergeNode in="blur"/>
        <feMergeNode in="SourceGraphic"/>
      </feMerge>
    </filter>
  </defs>

  <rect width="1500" height="500" fill="url(#bg)"/>

  <g opacity="0.18">
    <path d="M0 410C160 360 250 420 410 372C575 322 650 240 835 254C1020 268 1120 368 1500 306" stroke="#22D3EE" stroke-width="2"/>
    <path d="M0 435C155 382 286 432 468 392C641 354 728 284 920 300C1117 317 1260 380 1500 343" stroke="#818CF8" stroke-width="2"/>
  </g>

  <g opacity="0.14">
    <path d="M1120 70L1460 70" stroke="#4B5563"/>
    <path d="M1120 110L1460 110" stroke="#4B5563"/>
    <path d="M1120 150L1460 150" stroke="#4B5563"/>
    <path d="M1120 190L1460 190" stroke="#4B5563"/>
    <path d="M1120 230L1460 230" stroke="#4B5563"/>
    <path d="M1160 40L1160 260" stroke="#4B5563"/>
    <path d="M1240 40L1240 260" stroke="#4B5563"/>
    <path d="M1320 40L1320 260" stroke="#4B5563"/>
    <path d="M1400 40L1400 260" stroke="#4B5563"/>
  </g>

  <circle cx="1180" cy="112" r="84" fill="#22D3EE" fill-opacity="0.10" filter="url(#glow)"/>
  <circle cx="1310" cy="185" r="94" fill="#818CF8" fill-opacity="0.08" filter="url(#glow)"/>

  <text x="160" y="205" fill="url(#title)" font-family="Inter, Segoe UI, Arial, sans-serif" font-size="108" font-weight="800" letter-spacing="1">Aeolus</text>
  <text x="166" y="270" fill="#E2E8F0" font-family="Inter, Segoe UI, Arial, sans-serif" font-size="36" font-weight="600">Financial Skill Platform</text>
  <text x="166" y="322" fill="#94A3B8" font-family="Inter, Segoe UI, Arial, sans-serif" font-size="24">Control the Winds of Financial Intelligence.</text>
</svg>
